HIERARCHY
ROOT Hips
{
	OFFSET 0.00000 0.00000 0.00000
	CHANNELS 6 Xposition Yposition Zposition Zrotation Yrotation Xrotation 
	JOINT LHipJoint
	{
		OFFSET 0 0 0
		CHANNELS 3 Zrotation Yrotation Xrotation
		JOINT LeftHip
		{
			OFFSET 1.59801 -1.77853 0.57028
			CHANNELS 3 Zrotation Yrotation Xrotation
			JOINT LeftKnee
			{
				OFFSET 2.39439 -6.57854 0.00000
				CHANNELS 3 Zrotation Yrotation Xrotation
				JOINT LeftAnkle
				{
					OFFSET 2.69334 -7.39989 0.00000
					CHANNELS 3 Zrotation Yrotation Xrotation
					JOINT LeftToe
					{
						OFFSET 0.09553 -0.26245 1.73747
						CHANNELS 3 Zrotation Yrotation Xrotation
						End Site
						{
							OFFSET 0.00000 -0.00000 0.89391
						}
					}
				}
			}
		}
	}
	JOINT RHipJoint
	{
		OFFSET 0 0 0
		CHANNELS 3 Zrotation Yrotation Xrotation
		JOINT RightHip
		{
			OFFSET -1.54704 -1.77852 0.57028
			CHANNELS 3 Zrotation Yrotation Xrotation
			JOINT RightKnee
			{
				OFFSET -2.40286 -6.60180 0.00000
				CHANNELS 3 Zrotation Yrotation Xrotation
				JOINT RightAnkle
				{
					OFFSET -2.63873 -7.24984 0.00000
					CHANNELS 3 Zrotation Yrotation Xrotation
					JOINT RightToe
					{
						OFFSET -0.15631 -0.42945 1.84436
						CHANNELS 3 Zrotation Yrotation Xrotation
						End Site
						{
							OFFSET -0.00000 -0.00000 0.95734
						}
					}
				}
			}
		}
	}
	JOINT lowerback
	{
		OFFSET 0 0 0
		CHANNELS 3 Zrotation Yrotation Xrotation
		JOINT Chest
		{
			OFFSET -0.00436 1.89866 -0.04018
			CHANNELS 3 Zrotation Yrotation Xrotation
			JOINT Chest2
			{
				OFFSET 0.02031 1.88273 0.09634
				CHANNELS 3 Zrotation Yrotation Xrotation
				JOINT lowerneck
				{
					OFFSET 0 0 0
					CHANNELS 3 Zrotation Yrotation Xrotation
					JOINT Neck
					{
						OFFSET -0.13105 1.89371 0.23083
						CHANNELS 3 Zrotation Yrotation Xrotation
						JOINT Head
						{
							OFFSET 0.17062 1.83990 -0.54062
							CHANNELS 3 Zrotation Yrotation Xrotation
							End Site
							{
								OFFSET 0.04576 1.94782 -0.21839
							}
						}
					}
				}
				JOINT LeftCollar
				{
					OFFSET 0 0 0
					CHANNELS 3 Zrotation Yrotation Xrotation
					JOINT LeftShoulder
					{
						OFFSET 3.12424 1.09204 0.22226
CHANNELS 3 Zrotation Xrotation Yrotation
						JOINT LeftElbow
						{
OFFSET 0 -5.292770 0.000000
CHANNELS 3 Zrotation Xrotation Yrotation
							JOINT LeftWrist
							{
OFFSET 0 -2.852260 0.000000
CHANNELS 3 Zrotation Xrotation Yrotation
								JOINT lhand
								{
									OFFSET 0 0 0
CHANNELS 3 Zrotation Xrotation Yrotation
									JOINT LFingers
									{
OFFSET 0 -0.602100 0.000000
CHANNELS 3 Zrotation Xrotation Yrotation
										End Site
										{
OFFSET 0 -0.485430 0.000000
										}
									}
								}
								JOINT LThumb
								{
OFFSET 0 0.000000 0.000000
CHANNELS 3 Zrotation Xrotation Yrotation
									End Site
									{
OFFSET 0 -0.492840 0.492840
									}
								}
							}
						}
					}
				}
				JOINT RightCollar
				{
					OFFSET 0 0 0
					CHANNELS 3 Zrotation Yrotation Xrotation
					JOINT RightShoulder
					{
						OFFSET -2.91709 1.01504 0.30199
CHANNELS 3 Zrotation Xrotation Yrotation
						JOINT RightElbow
						{
OFFSET 0 -5.133040 0.000000
CHANNELS 3 Zrotation Xrotation Yrotation
							JOINT RightWrist
							{
OFFSET 0 -2.743050 0.000000
CHANNELS 3 Zrotation Xrotation Yrotation
								JOINT rhand
								{
									OFFSET 0 0 0
CHANNELS 3 Zrotation Xrotation Yrotation
									JOINT RFingers
									{
OFFSET 0 -0.767980 0.000000
CHANNELS 3 Zrotation Xrotation Yrotation
										End Site
										{
OFFSET 0 -0.619160 0.000000
										}
									}
								}
								JOINT RThumb
								{
OFFSET 0 0.000000 0.000000
CHANNELS 3 Zrotation Xrotation Yrotation
									End Site
									{
OFFSET 0 -0.628620 0.628620
									}
								}
							}
						}
					}
				}
			}
		}
	}
}
MOTION
Frames: 4
Frame Time: 0.008333333333333333
0.342600 17.500900 -0.290000 -0.503900 1.390000 4.826400 0.000000 0.000000 0.000000 -19.829300 -19.012300 1.893000 0.454000 4.322600 11.986000 0.222800 8.383900 -15.573600 1.035300 -6.471500 -18.158900 0.000000 0.000000 0.000000 18.825800 7.587300 5.396500 0.000000 -0.000000 0.000000 0.152000 -9.667200 -10.750300 -0.311900 3.590500 -9.927400 -2.075300 -0.206800 -4.280700 0.708600 -0.205700 -2.922200 1.883300 -0.068000 -0.591600 -19.472700 -11.769500 -7.124900 21.607900 -18.054700 16.753400 8.494000 -8.209600 10.416700 -0.000000 0.000000 0.000000 -1.825100 1.648200 -30.024900 8.211900 -13.895800 1.002400 -0.000000 20.418300 -0.000000 0.000000 0.000000 0.000000 -0.000000 -0.000000 -0.000000 -0.000000 0.000000 -0.000000 -0.000000 0.000000 0.000000 -0.394900 5.180700 20.007800 -11.205600 -18.602700 -1.841000 -10.945100 35.125900 -11.811800 0.000000 0.000000 0.000000 7.125000 0.000000 -0.000000 11.319300 18.088400 7.391300
0.343622 17.500178 -0.315643 -0.538717 1.262976 4.814339 0.000000 0.000000 0.000000 -19.763432 -18.953672 1.669456 0.468110 4.388505 12.172361 0.236824 8.370936 -15.753433 1.076608 -6.595370 -18.522012 0.000000 0.000000 0.000000 18.847063 7.759643 5.299097 0.000000 0.000000 0.000000 0.154178 -9.634326 -10.635253 -0.371594 3.912740 -10.831763 -1.973399 -0.225669 -4.497607 0.816768 -0.229036 -2.621475 1.935264 -0.087989 -0.160361 -19.238206 -11.585017 -7.414585 21.679511 -17.712782 16.412018 8.522056 -8.018546 10.254177 0.000000 0.000000 0.000000 -1.896255 1.147128 -30.168044 8.322834 -14.074772 1.029220 7.720396 24.017727 -22.773982 0.000000 0.000000 0.000000 -7.125000 0.000000 0.000000 -21.499112 51.646852 3.660704 0.000000 0.000000 0.000000 -0.564160 4.681265 20.352012 -11.227343 -18.635904 -1.847959 -10.674700 35.039166 -11.677307 0.000000 0.000000 0.000000 7.125000 0.000000 0.000000 11.512055 18.236736 7.483850
0.330733 17.505233 -0.358520 -0.637946 0.502874 4.824042 0.000000 0.000000 0.000000 -19.545424 -18.243142 1.339148 0.466733 4.382097 12.154126 0.230304 8.385179 -15.678871 1.099615 -6.663254 -18.721390 0.000000 0.000000 0.000000 18.984781 8.569021 5.319948 0.000000 0.000000 0.000000 0.170263 -9.779242 -10.516618 -0.288029 3.446265 -9.524297 -1.837761 -0.270804 -4.047246 0.954291 -0.302491 -2.732033 1.999054 -0.120396 -0.521319 -19.186533 -11.540445 -7.594027 21.584836 -17.671725 16.745450 8.490922 -7.985888 10.379829 0.000000 0.000000 0.000000 -1.824203 1.319521 -31.003360 8.247334 -13.952924 1.010922 8.374963 23.678424 -22.586479 0.000000 0.000000 0.000000 -7.125000 0.000000 0.000000 -20.783312 51.579888 3.494430 0.000000 0.000000 0.000000 -0.646399 4.887731 20.543737 -11.312351 -18.765416 -1.875176 -10.720370 34.944468 -11.345822 0.000000 0.000000 0.000000 7.125000 0.000000 0.000000 11.493844 18.564282 7.386372
0.329236 17.506766 -0.386632 -0.551442 0.137405 4.769484 0.000000 0.000000 0.000000 -19.658326 -17.854748 1.363278 0.450035 4.304007 11.933487 0.230918 8.288720 -15.582417 1.020044 -6.425069 -18.022922 0.000000 0.000000 0.000000 18.873966 8.939300 5.346648 0.000000 0.000000 0.000000 0.178632 -9.816394 -10.378315 -0.367469 3.893980 -10.778570 -1.750025 -0.376344 -4.002216 0.973433 -0.446640 -2.631439 1.964091 -0.195420 -0.436452 -19.149071 -11.626876 -7.667374 21.634962 -17.828696 16.842582 8.473949 -8.046384 10.469242 0.000000 0.000000 0.000000 -1.871226 1.135341 -31.273529 8.360462 -14.135447 1.038374 7.294103 24.166618 -23.407124 0.000000 0.000000 0.000000 -7.125000 0.000000 0.000000 -22.241040 52.161959 4.089186 0.000000 0.000000 0.000000 -0.794408 4.671137 20.996780 -11.307300 -18.757683 -1.873523 -10.736828 34.367673 -11.716308 0.000000 0.000000 0.000000 7.125000 0.000000 0.000000 11.467346 18.194591 7.464497
